<svg xmlns="http://www.w3.org/2000/svg" viewBox="0 0 512 512">
  <path fill="#86B094" d="M416 32a95.17 95.17 0 0 0-57.73 19.74C334.93 20.5 298 0 256 0s-78.93 20.5-102.27 51.74A95.56 95.56 0 0 0 0 128c0 41.74 26.92 76.9 64 90.65v261.47A31.87 31.87 0 0 0 96 512h320a31.87 31.87 0 0 0 32-31.88V218.65c37.08-13.75 64-48.91 64-90.65 0-52.94-43.06-96-96-96zM128 128a63.77 63.77 0 0 1 29.63-54A31.86 31.86 0 0 0 186 66.67a31.29 31.29 0 0 0 30.16-22.86C223.62 25.39 239.3 16 256 16s32.38 9.39 39.85 27.83A31.29 31.29 0 0 0 326 66.67c11.56 0 21.8 6.6 28.36 17A65.07 65.07 0 0 1 283.2 181.31 130.19 130.19 0 0 0 256 178.46a130.19 130.19 0 0 0-27.2 2.85A67 67 0 0 1 128 128zm0 351.12V218.58c16.12 2.79 32.4-1.46 43.29-9.5a52.7 52.7 0 0 0 8.23-7.09c23.59-24.76 85.37-24.76 108.94 0 11.74 12.62 50.76 10.2 69.09 7.28v270.85zm288-31.88H384V209.44c30.31-7.41 52.14-24.075 66.92-44.1 1.84 2.91 7.73 10.25 13.08 12.83V447.24z"/>
  <path fill="#DE7759" d="M224 256c-8.2 0-16.29-.68-23.89-2a8 8 0 0 1-1.8-.62c-15-6.45-23.54-12.41-23.54-16.92s8.58-10.48 23.54-16.92a8 8 0 0 1 1.8-.62c7.6-1.35 15.69-2 23.89-2s16.29.68 23.89 2a8 8 0 0 1 1.8.62c15 6.45 23.54 12.41 23.54 16.92s-8.58 10.48-23.54 16.92a8 8 0 0 1-1.8.62c-7.6 1.35-15.69 2-23.89 2zm0-16c7.37 0 14.05.54 19.85 1.6-5.85 1.06-12.51 1.6-19.85 1.6s-14-.54-19.84-1.6c5.81-1.06 12.47-1.6 19.84-1.6z"/>
  <path fill="#DE7759" d="M208 288a8 8 0 0 1-8-8v-80a8 8 0 0 1 16 0v80a8 8 0 0 1-8 8zm32 0a8 8 0 0 1-8-8v-80a8 8 0 0 1 16 0v80a8 8 0 0 1-8 8z"/>
  <path fill="#F0CA79" d="M272 336a8 8 0 0 1-8-8c0-4.71-8.55-8-24-8a8 8 0 0 1 0-16c15.45 0 24-3.29 24-8a8 8 0 0 1 16 0c0 4.51-8.58 10.48-23.54 16.92a8 8 0 0 1-1.8.62 76.08 76.08 0 0 1-10.45 1.38c7.44 1.52 12.22 3.93 15.7 5.88.24.13.48.27.71.42 2.84 1.72 4.38 3.31 4.38 4.78a8 8 0 0 1-8 8z"/>
  <path fill="#F0CA79" d="M288 384a8 8 0 0 1-8-8v-80a8 8 0 0 1 16 0v80a8 8 0 0 1-8 8z"/>
</svg>